# Blender v2.79 (sub 0) OBJ File: 'Tabuleiro.blend'
# www.blender.org
mtllib Tabuleiro.mtl
o Cube
v -4.200000 0.000000 3.966365
v -4.200000 0.100000 3.966365
v -4.200000 0.000000 -4.200000
v -4.200000 0.100000 -4.200000
v -4.000000 0.000000 3.966365
v -4.000000 0.100000 3.966365
v -4.000000 0.000000 -4.200000
v -4.000000 0.100000 -4.200000
vn -1.0000 0.0000 0.0000
vn 0.0000 0.0000 -1.0000
vn 1.0000 0.0000 0.0000
vn 0.0000 0.0000 1.0000
vn 0.0000 -1.0000 0.0000
vn 0.0000 1.0000 0.0000
usemtl MatMad
s off
f 1//1 2//1 4//1 3//1
f 3//2 4//2 8//2 7//2
f 7//3 8//3 6//3 5//3
f 5//4 6//4 2//4 1//4
f 3//5 7//5 5//5 1//5
f 8//6 4//6 2//6 6//6
o Tabu_Plane.064
v -4.000000 0.000000 4.000000
v 4.000000 0.000000 4.000000
v -4.000000 0.000000 -4.000000
v 4.000000 0.000000 -4.000000
v -4.000000 0.000000 -3.000000
v -4.000000 0.000000 -2.000000
v -4.000000 0.000000 -1.000000
v -4.000000 0.000000 0.000000
v -4.000000 0.000000 1.000000
v -4.000000 0.000000 2.000000
v -4.000000 0.000000 3.000000
v 4.000000 0.000000 3.000000
v 4.000000 0.000000 2.000000
v 4.000000 0.000000 1.000000
v 4.000000 0.000000 0.000000
v 4.000000 0.000000 -1.000000
v 4.000000 0.000000 -2.000000
v 4.000000 0.000000 -3.000000
v -3.000000 0.000000 4.000000
v -2.000000 0.000000 4.000000
v -1.000000 0.000000 4.000000
v 0.000000 0.000000 4.000000
v 1.000000 0.000000 4.000000
v 2.000000 0.000000 4.000000
v 3.000000 0.000000 4.000000
v 3.000000 0.000000 -4.000000
v 2.000000 0.000000 -4.000000
v 1.000000 0.000000 -4.000000
v 0.000000 0.000000 -4.000000
v -1.000000 0.000000 -4.000000
v -2.000000 0.000000 -4.000000
v -3.000000 0.000000 -4.000000
v 3.000000 0.000000 3.000000
v 2.000000 0.000000 3.000000
v 1.000000 0.000000 3.000000
v 0.000000 0.000000 3.000000
v -1.000000 0.000000 3.000000
v -2.000000 0.000000 3.000000
v -3.000000 0.000000 3.000000
v 3.000000 0.000000 2.000000
v 2.000000 0.000000 2.000000
v 1.000000 0.000000 2.000000
v 0.000000 0.000000 2.000000
v -1.000000 0.000000 2.000000
v -2.000000 0.000000 2.000000
v -3.000000 0.000000 2.000000
v 3.000000 0.000000 1.000000
v 2.000000 0.000000 1.000000
v 1.000000 0.000000 1.000000
v 0.000000 0.000000 1.000000
v -1.000000 0.000000 1.000000
v -2.000000 0.000000 1.000000
v -3.000000 0.000000 1.000000
v 3.000000 0.000000 0.000000
v 2.000000 0.000000 0.000000
v 1.000000 0.000000 0.000000
v 0.000000 0.000000 0.000000
v -1.000000 0.000000 0.000000
v -2.000000 0.000000 0.000000
v -3.000000 0.000000 0.000000
v 3.000000 0.000000 -1.000000
v 2.000000 0.000000 -1.000000
v 1.000000 0.000000 -1.000000
v 0.000000 0.000000 -1.000000
v -1.000000 0.000000 -1.000000
v -2.000000 0.000000 -1.000000
v -3.000000 0.000000 -1.000000
v 3.000000 0.000000 -2.000000
v 2.000000 0.000000 -2.000000
v 1.000000 0.000000 -2.000000
v 0.000000 0.000000 -2.000000
v -1.000000 0.000000 -2.000000
v -2.000000 0.000000 -2.000000
v -3.000000 0.000000 -2.000000
v 3.000000 0.000000 -3.000000
v 2.000000 0.000000 -3.000000
v 1.000000 0.000000 -3.000000
v 0.000000 0.000000 -3.000000
v -1.000000 0.000000 -3.000000
v -2.000000 0.000000 -3.000000
v -3.000000 0.000000 -3.000000
v 0.000000 0.000000 0.000000
v 0.000000 0.000000 0.000000
v 0.000000 0.000000 0.000000
v 0.000000 0.000000 0.000000
v 0.000000 0.000000 0.000000
v 0.000000 0.000000 0.000000
v 0.000000 0.000000 0.000000
v 0.000000 0.000000 0.000000
vn 0.0000 1.0000 0.0000
vn 0.0000 0.0000 1.0000
usemtl Material.001
s off
f 83//7 26//7 12//7 34//7
f 41//7 20//7 21//7 48//7
f 55//7 22//7 23//7 62//7
f 69//7 24//7 25//7 76//7
f 14//7 82//7 89//7 13//7
f 81//7 80//7 87//7 88//7
f 79//7 78//7 85//7 86//7
f 77//7 76//7 83//7 84//7
f 75//7 74//7 81//7 82//7
f 73//7 72//7 79//7 80//7
f 71//7 70//7 77//7 78//7
f 16//7 68//7 75//7 15//7
f 67//7 66//7 73//7 74//7
f 65//7 64//7 71//7 72//7
f 63//7 62//7 69//7 70//7
f 61//7 60//7 67//7 68//7
f 59//7 58//7 65//7 66//7
f 57//7 56//7 63//7 64//7
f 18//7 54//7 61//7 17//7
f 53//7 52//7 59//7 60//7
f 51//7 50//7 57//7 58//7
f 49//7 48//7 55//7 56//7
f 47//7 46//7 53//7 54//7
f 45//7 44//7 51//7 52//7
f 43//7 42//7 49//7 50//7
f 9//7 27//7 47//7 19//7
f 28//7 29//7 45//7 46//7
f 30//7 31//7 43//7 44//7
f 32//7 33//7 41//7 42//7
f 89//7 88//7 39//7 40//7
f 87//7 86//7 37//7 38//7
f 85//7 84//7 35//7 36//7
f 90//8 91//8 93//8 92//8
f 92//8 93//8 97//8 96//8
f 96//8 97//8 95//8 94//8
f 94//8 95//8 91//8 90//8
f 92//8 96//8 94//8 90//8
f 97//8 93//8 91//8 95//8
usemtl Material.002
f 33//7 10//7 20//7 41//7
f 48//7 21//7 22//7 55//7
f 62//7 23//7 24//7 69//7
f 76//7 25//7 26//7 83//7
f 82//7 81//7 88//7 89//7
f 80//7 79//7 86//7 87//7
f 78//7 77//7 84//7 85//7
f 15//7 75//7 82//7 14//7
f 74//7 73//7 80//7 81//7
f 72//7 71//7 78//7 79//7
f 70//7 69//7 76//7 77//7
f 68//7 67//7 74//7 75//7
f 66//7 65//7 72//7 73//7
f 64//7 63//7 70//7 71//7
f 17//7 61//7 68//7 16//7
f 60//7 59//7 66//7 67//7
f 58//7 57//7 64//7 65//7
f 56//7 55//7 62//7 63//7
f 54//7 53//7 60//7 61//7
f 52//7 51//7 58//7 59//7
f 50//7 49//7 56//7 57//7
f 19//7 47//7 54//7 18//7
f 46//7 45//7 52//7 53//7
f 44//7 43//7 50//7 51//7
f 42//7 41//7 48//7 49//7
f 27//7 28//7 46//7 47//7
f 29//7 30//7 44//7 45//7
f 31//7 32//7 42//7 43//7
f 13//7 89//7 40//7 11//7
f 88//7 87//7 38//7 39//7
f 86//7 85//7 36//7 37//7
f 84//7 83//7 34//7 35//7
o Cube.001
v 4.000000 0.000000 4.166366
v 4.000000 0.100000 4.166366
v 4.000000 0.000000 -4.000000
v 4.000000 0.100000 -4.000000
v 4.200000 0.000000 4.166366
v 4.200000 0.100000 4.166366
v 4.200000 0.000000 -4.000000
v 4.200000 0.100000 -4.000000
vn -1.0000 0.0000 0.0000
vn 0.0000 0.0000 -1.0000
vn 1.0000 0.0000 0.0000
vn 0.0000 0.0000 1.0000
vn 0.0000 -1.0000 0.0000
vn 0.0000 1.0000 0.0000
usemtl MatMad
s off
f 98//9 99//9 101//9 100//9
f 100//10 101//10 105//10 104//10
f 104//11 105//11 103//11 102//11
f 102//12 103//12 99//12 98//12
f 100//13 104//13 102//13 98//13
f 105//14 101//14 99//14 103//14
o Cube.003
v 4.000000 0.000000 4.166366
v 4.000000 0.100000 4.166366
v -4.200374 0.000000 4.166365
v -4.200374 0.100000 4.166365
v 4.000000 0.000000 3.966366
v 4.000000 0.100000 3.966366
v -4.200374 0.000000 3.966365
v -4.200374 0.100000 3.966365
vn -0.0000 0.0000 1.0000
vn -1.0000 0.0000 0.0000
vn 0.0000 0.0000 -1.0000
vn 1.0000 0.0000 0.0000
vn 0.0000 -1.0000 0.0000
vn 0.0000 1.0000 0.0000
usemtl MatMad
s off
f 106//15 107//15 109//15 108//15
f 108//16 109//16 113//16 112//16
f 112//17 113//17 111//17 110//17
f 110//18 111//18 107//18 106//18
f 108//19 112//19 110//19 106//19
f 113//20 109//20 107//20 111//20
o Cube.002
v 4.200000 0.000000 -4.000000
v 4.200000 0.100000 -4.000000
v -4.000000 0.000000 -4.000000
v -4.000000 0.100000 -4.000000
v 4.200000 0.000000 -4.200000
v 4.200000 0.100000 -4.200000
v -4.000000 0.000000 -4.200000
v -4.000000 0.100000 -4.200000
vn -0.0000 0.0000 1.0000
vn -1.0000 0.0000 0.0000
vn 0.0000 0.0000 -1.0000
vn 1.0000 0.0000 0.0000
vn 0.0000 -1.0000 0.0000
vn 0.0000 1.0000 0.0000
usemtl MatMad
s off
f 114//21 115//21 117//21 116//21
f 116//22 117//22 121//22 120//22
f 120//23 121//23 119//23 118//23
f 118//24 119//24 115//24 114//24
f 116//25 120//25 118//25 114//25
f 121//26 117//26 115//26 119//26
